<?xml version="1.0" encoding="utf-8"?>
<!-- Generator: Adobe Illustrator 23.0.0, SVG Export Plug-In . SVG Version: 6.00 Build 0)  -->
<svg version="1.1" id="Layer_1" xmlns="http://www.w3.org/2000/svg" xmlns:xlink="http://www.w3.org/1999/xlink" x="0px" y="0px"
	 viewBox="0 0 162.97 15.05" style="enable-background:new 0 0 162.97 15.05;" xml:space="preserve">
<style type="text/css">
	.st0{fill:#FFFFFF;}
</style>
<path class="st0" d="M3.18,7.29c-0.12,0.13-0.12,0.35,0,0.48c0.34,0.37,0.5,1.01,0.49,1.43l0.01,3.07c0,0-0.04,0.27,0.09,0.43
	c0.13,0.17,0.46,0.15,0.46,0.15h0.71c0.21,0,0.37,0.17,0.37,0.37v1.46c0,0.21-0.17,0.38-0.38,0.37c-0.66-0.02-1.98-0.09-2.46-0.4
	c-0.58-0.37-1.24-0.7-1.2-3.61c0.03-2.1,0.08-2.22-0.13-2.42C1.03,8.51,0.65,8.47,0.36,8.47C0.16,8.46,0,8.3,0,8.1V6.96
	c0-0.2,0.16-0.37,0.36-0.37c0.29-0.01,0.66-0.04,0.78-0.16c0.2-0.2,0.16-0.31,0.13-2.42c-0.03-2.9,0.62-3.24,1.2-3.6
	c0.48-0.3,1.8-0.38,2.46-0.4C5.14,0,5.31,0.17,5.31,0.38v1.46c0,0.21-0.17,0.37-0.37,0.37H4.23c0,0-0.33-0.02-0.46,0.15
	C3.65,2.52,3.69,2.79,3.69,2.79L3.68,5.86C3.68,6.28,3.52,6.92,3.18,7.29z"/>
<path class="st0" d="M159.79,7.29c0.12,0.13,0.12,0.35,0,0.48c-0.34,0.37-0.5,1.01-0.49,1.43l-0.01,3.07c0,0,0.04,0.27-0.09,0.43
	c-0.13,0.17-0.46,0.15-0.46,0.15h-0.71c-0.21,0-0.37,0.17-0.37,0.37v1.46c0,0.21,0.17,0.38,0.38,0.37c0.66-0.02,1.98-0.09,2.46-0.4
	c0.58-0.37,1.24-0.7,1.2-3.61c-0.03-2.1-0.08-2.22,0.13-2.42c0.12-0.12,0.49-0.15,0.78-0.16c0.2,0,0.36-0.17,0.36-0.37V6.96
	c0-0.2-0.16-0.37-0.36-0.37c-0.29-0.01-0.66-0.04-0.78-0.16c-0.2-0.2-0.16-0.32-0.13-2.42c0.03-2.91-0.62-3.24-1.2-3.61
	c-0.48-0.3-1.8-0.38-2.46-0.4c-0.21-0.01-0.38,0.16-0.38,0.37v1.46c0,0.21,0.17,0.37,0.37,0.37h0.71c0,0,0.33-0.02,0.46,0.15
	c0.12,0.16,0.09,0.43,0.09,0.43l0.01,3.07C159.29,6.28,159.45,6.92,159.79,7.29z"/>
<g>
	<path class="st0" d="M13.06,12.35l-0.8,1.84c-0.14,0.33,0.1,0.69,0.46,0.69h13.52c0.25,0,0.41-0.25,0.32-0.48L20.62,0.64
		c-0.09-0.21-0.3-0.35-0.53-0.35h-1.67c-0.23,0-0.45,0.14-0.54,0.36l-3.97,9.56c-0.08,0.19-0.05,0.4,0.07,0.57l0,0
		c0.11,0.15,0.28,0.24,0.47,0.24h1.26c0.33,0,0.63-0.19,0.77-0.49l2.62-5.67c0.09-0.2,0.37-0.19,0.46,0.01l2.79,6.74
		c0.1,0.24-0.08,0.51-0.34,0.51l-8.5-0.06C13.32,12.05,13.14,12.17,13.06,12.35z"/>
	<path class="st0" d="M43.97,12.29l-0.8,1.84c-0.14,0.33,0.1,0.69,0.46,0.69h13.52c0.25,0,0.41-0.25,0.32-0.48L51.53,0.58
		c-0.09-0.21-0.3-0.35-0.53-0.35h-1.67c-0.23,0-0.45,0.14-0.54,0.36l-3.97,9.56c-0.08,0.19-0.05,0.4,0.07,0.57l0,0
		c0.11,0.15,0.28,0.24,0.47,0.24h1.26c0.33,0,0.63-0.19,0.77-0.49l2.62-5.67c0.09-0.2,0.37-0.19,0.46,0.01l2.79,6.74
		c0.1,0.24-0.08,0.51-0.34,0.51L44.42,12C44.23,11.99,44.05,12.11,43.97,12.29z"/>
	<g>
		<path class="st0" d="M78.64,7.61c0,3.01,1.81,4.02,2.78,4.35c0.36,0.12,0.6,0.45,0.6,0.83v1.23c0,0.58-0.55,1-1.11,0.85
			c-2.25-0.63-5.11-2.41-5.11-7.25S78.66,1,80.91,0.37c0.56-0.16,1.11,0.27,1.11,0.85v1.23c0,0.38-0.24,0.71-0.6,0.83
			C80.45,3.59,78.64,4.6,78.64,7.61z"/>
		<path class="st0" d="M87.23,7.61c0,3.01-1.81,4.02-2.78,4.35c-0.36,0.12-0.6,0.45-0.6,0.83v1.23c0,0.58,0.55,1,1.11,0.85
			c2.25-0.63,5.11-2.41,5.11-7.25S87.21,1,84.96,0.37c-0.56-0.16-1.11,0.27-1.11,0.85v1.23c0,0.38,0.24,0.71,0.6,0.83
			C85.42,3.59,87.23,4.6,87.23,7.61z"/>
	</g>
	<g>
		<path class="st0" d="M61.6,7.61c0,3.01,1.81,4.02,2.78,4.35c0.36,0.12,0.6,0.45,0.6,0.83v1.23c0,0.58-0.55,1-1.11,0.85
			c-2.25-0.63-5.11-2.41-5.11-7.25S61.62,1,63.87,0.37c0.56-0.16,1.11,0.27,1.11,0.85v1.23c0,0.38-0.24,0.71-0.6,0.83
			C63.41,3.59,61.6,4.6,61.6,7.61z"/>
		<path class="st0" d="M66.27,0.8v1.68c0,0.22,0.15,0.4,0.37,0.44c0.53,0.1,1.52,0.34,2.04,0.88c0.51,0.53,0.88,1.22,1.05,1.59
			c0.07,0.16,0.23,0.26,0.4,0.26h2.05c0.3,0,0.51-0.29,0.42-0.58c-0.27-0.85-0.91-2.46-2.18-3.39c-1.54-1.12-2.72-1.27-3.67-1.33
			C66.49,0.34,66.27,0.55,66.27,0.8z"/>
		<path class="st0" d="M66.27,14.44v-1.68c0-0.22,0.15-0.4,0.37-0.44c0.53-0.1,1.52-0.34,2.04-0.88c0.51-0.53,0.88-1.22,1.05-1.59
			c0.07-0.16,0.23-0.26,0.4-0.26h2.05c0.3,0,0.51,0.29,0.42,0.58c-0.27,0.85-0.91,2.46-2.18,3.39c-1.54,1.12-2.72,1.27-3.67,1.33
			C66.49,14.9,66.27,14.7,66.27,14.44z"/>
	</g>
	<path class="st0" d="M123.34,7.4v6.97c0,0.26,0.21,0.47,0.47,0.47h1.68c0.26,0,0.47-0.21,0.47-0.47V10.2
		c0-0.26,0.21-0.47,0.47-0.47h2.91c0.17,0,0.32,0.09,0.41,0.23c0.58,0.99,2.83,4.81,2.98,4.89c0.12,0.06,1.57,0.04,2.53,0.02
		c0.37-0.01,0.59-0.42,0.39-0.73l-2.98-4.58c-0.15-0.23-0.08-0.54,0.16-0.67c0.78-0.44,2.3-1.6,2.3-4.01c0-3.25-3.16-4.54-4.32-4.54
		h-7.01c-0.26,0-0.47,0.21-0.47,0.47v1.9c0,0.26,0.21,0.47,0.47,0.47h6.82c0.03,0,0.07,0,0.1,0.01c0.29,0.07,1.73,0.47,1.73,1.95
		c0,1.65-1.6,1.74-2.05,1.78c-0.37,0.04-5.08,0.01-6.6,0C123.55,6.92,123.34,7.14,123.34,7.4z"/>
	<g>
		<path class="st0" d="M143.94,0.79v1.49c0,0.28-0.19,0.52-0.46,0.59c-0.63,0.16-1.7,0.56-1.7,1.42c0,1.22,2.52,1.63,3.16,1.71
			s5.81,0.96,5.81,4.48c0,3.2-2.47,4.24-4.73,4.4c-0.36,0.03-0.66-0.25-0.66-0.61v-1.28c0-0.45,0.21-0.7,0.5-0.76
			c0.78-0.15,2.22-0.56,2.22-1.67c0-1.51-4.61-1.98-5.63-2.34c-1.02-0.36-3.5-1.67-3.5-4.03c0-2.17,1.79-3.78,4.31-4.02
			C143.63,0.15,143.94,0.43,143.94,0.79z"/>
		<path class="st0" d="M139.24,9.5h1.46c0.32,0,0.58,0.24,0.61,0.55c0.07,0.69,0.44,1.82,2.12,2.18c0.27,0.06,0.47,0.31,0.47,0.58
			c0.01,0.41-0.01,0.99-0.02,1.44c-0.01,0.36-0.33,0.64-0.7,0.59c-0.96-0.13-2.71-0.56-3.6-1.87c-0.79-1.17-0.95-2.23-0.95-2.87
			C138.63,9.77,138.91,9.5,139.24,9.5z"/>
		<path class="st0" d="M145.35,0.76v1.46c0,0.32,0.24,0.58,0.55,0.61c0.69,0.07,1.82,0.44,2.18,2.12c0.06,0.27,0.31,0.47,0.58,0.47
			c0.41,0.01,0.99-0.01,1.44-0.02c0.36-0.01,0.64-0.33,0.59-0.7c-0.13-0.96-0.56-2.71-1.87-3.6c-1.17-0.79-2.23-0.95-2.87-0.95
			C145.62,0.15,145.35,0.43,145.35,0.76z"/>
	</g>
	<path class="st0" d="M37.05,0.28c-0.26-0.07-1.2-0.12-1.47-0.12h-6.02c-0.2,0-0.37,0.16-0.37,0.37v2.03c0,0.2,0.16,0.37,0.37,0.37
		h5.62c0.59,0,1.17,0.14,1.68,0.43c0.96,0.57,2.28,1.77,2.28,4.16s-1.32,3.59-2.28,4.16c-0.51,0.3-1.09,0.43-1.68,0.43h-3.25V5.54
		c0-0.14-0.12-0.26-0.26-0.26h-2.23c-0.14,0-0.26,0.12-0.26,0.26v6.94v0.57v1.46c0,0.2,0.17,0.37,0.37,0.37h6.67
		c0.24,0,0.62-0.05,0.85-0.13c1.31-0.44,4.8-2.08,4.8-7.23C41.88,2.33,38.35,0.68,37.05,0.28z"/>
	<path class="st0" d="M101.11,0.28c-0.26-0.07-1.2-0.12-1.47-0.12h-6.02c-0.2,0-0.37,0.16-0.37,0.37v2.03c0,0.2,0.16,0.37,0.37,0.37
		h5.62c0.59,0,1.17,0.14,1.68,0.43c0.96,0.57,2.28,1.77,2.28,4.16s-1.32,3.59-2.28,4.16c-0.51,0.3-1.09,0.43-1.68,0.43h-3.25V5.54
		c0-0.14-0.12-0.26-0.26-0.26H93.5c-0.14,0-0.26,0.12-0.26,0.26v6.94v0.57v1.46c0,0.2,0.17,0.37,0.37,0.37h6.67
		c0.24,0,0.62-0.05,0.85-0.13c1.31-0.44,4.8-2.08,4.8-7.23C105.94,2.33,102.41,0.68,101.11,0.28z"/>
	<g>
		<path class="st0" d="M119.03,14.57h-10.16c-0.25,0-0.46-0.2-0.46-0.46v-1.7c0-0.25,0.2-0.46,0.46-0.46h10.16
			c0.25,0,0.46,0.2,0.46,0.46v1.7C119.49,14.37,119.28,14.57,119.03,14.57z"/>
		<path class="st0" d="M119.49,2.63v-1.7c0-0.25-0.2-0.46-0.46-0.46h-10.16c-0.25,0-0.46,0.2-0.46,0.46v7.56
			c0,0.25,0.2,0.46,0.46,0.46h8.94c0.25,0,0.46-0.2,0.46-0.46V6.87c0-0.25-0.2-0.46-0.46-0.46h-6.41c-0.25,0-0.46-0.2-0.46-0.46
			v-2.4c0-0.25,0.2-0.46,0.46-0.46h7.63C119.28,3.09,119.49,2.89,119.49,2.63z"/>
	</g>
</g>
</svg>
