<?xml version="1.0" encoding="utf-8"?>
<!-- Generator: Adobe Illustrator 23.0.0, SVG Export Plug-In . SVG Version: 6.00 Build 0)  -->
<svg version="1.1" id="Layer_1" xmlns="http://www.w3.org/2000/svg" xmlns:xlink="http://www.w3.org/1999/xlink" x="0px" y="0px"
	 viewBox="0 0 149.47 15.04" style="enable-background:new 0 0 149.47 15.04;" xml:space="preserve">
<style type="text/css">
	.st0{fill:#B8B8B9;}
</style>
<path class="st0" d="M3.18,7.28c-0.12,0.13-0.12,0.35,0,0.48c0.34,0.37,0.5,1.01,0.49,1.43l0.01,3.07c0,0-0.04,0.27,0.09,0.43
	c0.13,0.17,0.46,0.15,0.46,0.15h0.71c0.21,0,0.37,0.17,0.37,0.37v1.46c0,0.21-0.17,0.38-0.38,0.37c-0.66-0.02-1.98-0.09-2.46-0.4
	c-0.58-0.37-1.24-0.7-1.2-3.61c0.03-2.1,0.08-2.22-0.13-2.42C1.03,8.5,0.65,8.46,0.36,8.46C0.16,8.45,0,8.29,0,8.09V6.95
	c0-0.2,0.16-0.37,0.36-0.37c0.29-0.01,0.66-0.04,0.78-0.16C1.34,6.22,1.3,6.11,1.27,4c-0.03-2.9,0.62-3.24,1.2-3.6
	C2.95,0.1,4.27,0.02,4.93,0c0.21-0.01,0.38,0.16,0.38,0.37v1.46c0,0.21-0.17,0.37-0.37,0.37H4.23c0,0-0.33-0.02-0.46,0.15
	C3.65,2.51,3.69,2.78,3.69,2.78L3.68,5.85C3.68,6.27,3.52,6.91,3.18,7.28z"/>
<path class="st0" d="M146.29,7.28c0.12,0.13,0.12,0.35,0,0.48c-0.34,0.37-0.5,1.01-0.49,1.43l-0.01,3.07c0,0,0.04,0.27-0.09,0.43
	c-0.13,0.17-0.46,0.15-0.46,0.15h-0.71c-0.21,0-0.37,0.17-0.37,0.37v1.46c0,0.21,0.17,0.38,0.38,0.37c0.66-0.02,1.98-0.09,2.46-0.4
	c0.58-0.37,1.24-0.7,1.2-3.61c-0.03-2.1-0.08-2.22,0.13-2.42c0.12-0.12,0.49-0.15,0.78-0.16c0.2,0,0.36-0.17,0.36-0.37V6.95
	c0-0.2-0.16-0.37-0.36-0.37c-0.29-0.01-0.66-0.04-0.78-0.16c-0.2-0.2-0.16-0.32-0.13-2.42c0.03-2.91-0.62-3.24-1.2-3.61
	c-0.48-0.3-1.8-0.38-2.46-0.4c-0.21-0.01-0.38,0.16-0.38,0.37v1.46c0,0.21,0.17,0.37,0.37,0.37h0.71c0,0,0.33-0.02,0.46,0.15
	c0.12,0.16,0.09,0.43,0.09,0.43l0.01,3.07C145.79,6.27,145.95,6.91,146.29,7.28z"/>
<path class="st0" d="M9.67,12.35l-0.8,1.84c-0.14,0.33,0.1,0.69,0.46,0.69h13.52c0.25,0,0.41-0.25,0.32-0.48L17.23,0.64
	c-0.09-0.21-0.3-0.35-0.53-0.35h-1.67c-0.23,0-0.45,0.14-0.54,0.36l-3.97,9.56c-0.08,0.19-0.05,0.4,0.07,0.57l0,0
	c0.11,0.15,0.28,0.24,0.47,0.24h1.26c0.33,0,0.63-0.19,0.77-0.49l2.62-5.67c0.09-0.2,0.37-0.19,0.46,0.01l2.79,6.74
	c0.1,0.24-0.08,0.51-0.34,0.51l-8.5-0.06C9.93,12.05,9.75,12.17,9.67,12.35z"/>
<path class="st0" d="M38.28,12.35l-0.8,1.84c-0.14,0.33,0.1,0.69,0.46,0.69h13.52c0.25,0,0.41-0.25,0.32-0.48L45.84,0.64
	c-0.09-0.21-0.3-0.35-0.53-0.35h-1.67c-0.23,0-0.45,0.14-0.54,0.36l-3.97,9.56c-0.08,0.19-0.05,0.4,0.07,0.57l0,0
	c0.11,0.15,0.28,0.24,0.47,0.24h1.26c0.33,0,0.63-0.19,0.77-0.49l2.62-5.67c0.09-0.2,0.37-0.19,0.46,0.01l2.79,6.74
	c0.1,0.24-0.08,0.51-0.34,0.51l-8.5-0.06C38.54,12.05,38.36,12.17,38.28,12.35z"/>
<g>
	<path class="st0" d="M71.74,7.61c0,3.01,1.81,4.02,2.78,4.35c0.36,0.12,0.6,0.45,0.6,0.83v1.23c0,0.58-0.55,1-1.11,0.85
		c-2.25-0.63-5.11-2.41-5.11-7.25S71.76,1,74.01,0.37c0.56-0.16,1.11,0.27,1.11,0.85v1.23c0,0.38-0.24,0.71-0.6,0.83
		C73.55,3.59,71.74,4.6,71.74,7.61z"/>
	<path class="st0" d="M80.33,7.61c0,3.01-1.81,4.02-2.78,4.35c-0.36,0.12-0.6,0.45-0.6,0.83v1.23c0,0.58,0.55,1,1.11,0.85
		c2.25-0.63,5.11-2.41,5.11-7.25S80.31,1,78.06,0.37c-0.56-0.16-1.11,0.27-1.11,0.85v1.23c0,0.38,0.24,0.71,0.6,0.83
		C78.52,3.59,80.33,4.6,80.33,7.61z"/>
</g>
<g>
	<path class="st0" d="M55.7,7.61c0,3.01,1.81,4.02,2.78,4.35c0.36,0.12,0.6,0.45,0.6,0.83v1.23c0,0.58-0.55,1-1.11,0.85
		c-2.25-0.63-5.11-2.41-5.11-7.25S55.72,1,57.97,0.37c0.56-0.16,1.11,0.27,1.11,0.85v1.23c0,0.38-0.24,0.71-0.6,0.83
		C57.51,3.59,55.7,4.6,55.7,7.61z"/>
	<path class="st0" d="M60.37,0.8v1.68c0,0.22,0.15,0.4,0.37,0.44c0.53,0.1,1.52,0.34,2.04,0.88c0.51,0.53,0.88,1.22,1.05,1.59
		c0.07,0.16,0.23,0.26,0.4,0.26h2.05c0.3,0,0.51-0.29,0.42-0.58c-0.27-0.85-0.91-2.46-2.18-3.39c-1.54-1.12-2.72-1.27-3.67-1.33
		C60.59,0.34,60.37,0.55,60.37,0.8z"/>
	<path class="st0" d="M60.37,14.44v-1.68c0-0.22,0.15-0.4,0.37-0.44c0.53-0.1,1.52-0.34,2.04-0.88c0.51-0.53,0.88-1.22,1.05-1.59
		c0.07-0.16,0.23-0.26,0.4-0.26h2.05c0.3,0,0.51,0.29,0.42,0.58c-0.27,0.85-0.91,2.46-2.18,3.39c-1.54,1.12-2.72,1.27-3.67,1.33
		C60.59,14.9,60.37,14.7,60.37,14.44z"/>
</g>
<path class="st0" d="M113.44,7.4v6.97c0,0.26,0.21,0.47,0.47,0.47h1.68c0.26,0,0.47-0.21,0.47-0.47V10.2c0-0.26,0.21-0.47,0.47-0.47
	h2.91c0.17,0,0.32,0.09,0.41,0.23c0.58,0.99,2.83,4.81,2.98,4.89c0.12,0.06,1.57,0.04,2.53,0.02c0.37-0.01,0.59-0.42,0.39-0.73
	l-2.98-4.58c-0.15-0.23-0.08-0.54,0.16-0.67c0.78-0.44,2.3-1.6,2.3-4.01c0-3.25-3.16-4.54-4.32-4.54h-7.01
	c-0.26,0-0.47,0.21-0.47,0.47v1.9c0,0.26,0.21,0.47,0.47,0.47h6.82c0.03,0,0.07,0,0.1,0.01c0.29,0.07,1.73,0.47,1.73,1.95
	c0,1.65-1.6,1.74-2.05,1.78c-0.37,0.04-5.08,0.01-6.6,0C113.65,6.92,113.44,7.14,113.44,7.4z"/>
<g>
	<path class="st0" d="M133.83,0.79v1.49c0,0.28-0.19,0.52-0.46,0.59c-0.63,0.16-1.7,0.56-1.7,1.42c0,1.22,2.52,1.63,3.16,1.71
		s5.81,0.96,5.81,4.48c0,3.2-2.47,4.24-4.73,4.4c-0.36,0.03-0.66-0.25-0.66-0.61v-1.28c0-0.45,0.21-0.7,0.5-0.76
		c0.78-0.15,2.22-0.56,2.22-1.67c0-1.51-4.61-1.98-5.63-2.34c-1.02-0.36-3.5-1.67-3.5-4.03c0-2.17,1.79-3.78,4.31-4.02
		C133.52,0.15,133.83,0.43,133.83,0.79z"/>
	<path class="st0" d="M129.13,9.5h1.46c0.32,0,0.58,0.24,0.61,0.55c0.07,0.69,0.44,1.82,2.12,2.18c0.27,0.06,0.47,0.31,0.47,0.58
		c0.01,0.41-0.01,0.99-0.02,1.44c-0.01,0.36-0.33,0.64-0.7,0.59c-0.96-0.13-2.71-0.56-3.6-1.87c-0.79-1.17-0.95-2.23-0.95-2.87
		C128.52,9.77,128.8,9.5,129.13,9.5z"/>
	<path class="st0" d="M135.24,0.76v1.46c0,0.32,0.24,0.58,0.55,0.61c0.69,0.07,1.82,0.44,2.18,2.12c0.06,0.27,0.31,0.47,0.58,0.47
		c0.41,0.01,0.99-0.01,1.44-0.02c0.36-0.01,0.64-0.33,0.59-0.7c-0.13-0.96-0.56-2.71-1.87-3.6c-1.17-0.79-2.23-0.95-2.87-0.95
		C135.51,0.15,135.24,0.43,135.24,0.76z"/>
</g>
<path class="st0" d="M32.27,0.28c-0.26-0.07-1.2-0.12-1.47-0.12h-6.02c-0.2,0-0.37,0.16-0.37,0.37v2.03c0,0.2,0.16,0.37,0.37,0.37
	l5.62,0c0.59,0,1.17,0.14,1.68,0.43c0.96,0.57,2.28,1.77,2.28,4.16c0,2.39-1.32,3.59-2.28,4.16c-0.51,0.3-1.09,0.43-1.68,0.43
	l-3.25,0V5.54c0-0.14-0.12-0.26-0.26-0.26h-2.23c-0.14,0-0.26,0.12-0.26,0.26v6.94v0.57v1.46c0,0.2,0.17,0.37,0.37,0.37h6.67
	c0.24,0,0.62-0.05,0.85-0.13c1.31-0.44,4.8-2.08,4.8-7.23C37.1,2.33,33.57,0.68,32.27,0.28z"/>
<path class="st0" d="M93.21,0.28c-0.26-0.07-1.2-0.12-1.47-0.12h-6.02c-0.2,0-0.37,0.16-0.37,0.37v2.03c0,0.2,0.16,0.37,0.37,0.37
	l5.62,0c0.59,0,1.17,0.14,1.68,0.43c0.96,0.57,2.28,1.77,2.28,4.16c0,2.39-1.32,3.59-2.28,4.16c-0.51,0.3-1.09,0.43-1.68,0.43
	l-3.25,0V5.54c0-0.14-0.12-0.26-0.26-0.26H85.6c-0.14,0-0.26,0.12-0.26,0.26v6.94v0.57v1.46c0,0.2,0.17,0.37,0.37,0.37h6.67
	c0.24,0,0.62-0.05,0.85-0.13c1.31-0.44,4.8-2.08,4.8-7.23C98.04,2.33,94.51,0.68,93.21,0.28z"/>
<path class="st0" d="M110.13,14.57H99.97c-0.25,0-0.46-0.2-0.46-0.46v-1.7c0-0.25,0.2-0.46,0.46-0.46h10.16
	c0.25,0,0.46,0.2,0.46,0.46v1.7C110.59,14.37,110.38,14.57,110.13,14.57z"/>
<path class="st0" d="M110.59,2.63V0.93c0-0.25-0.2-0.46-0.46-0.46H99.97c-0.25,0-0.46,0.2-0.46,0.46v7.56c0,0.25,0.2,0.46,0.46,0.46
	h8.94c0.25,0,0.46-0.2,0.46-0.46V6.87c0-0.25-0.2-0.46-0.46-0.46h-6.41c-0.25,0-0.46-0.2-0.46-0.46V3.55c0-0.25,0.2-0.46,0.46-0.46
	h7.63C110.38,3.09,110.59,2.89,110.59,2.63z"/>
</svg>
